<?xml version="1.0" encoding="UTF-8"?>
<svg id="Layer_1" data-name="Layer 1" xmlns="http://www.w3.org/2000/svg" viewBox="0 0 515.91 976.43">
  <defs>
    <style>
      .cls-1 {
        fill: #e4e4e4;
        stroke: #000;
        stroke-miterlimit: 10;
        stroke-width: 15px;
      }
    </style>
  </defs>
  <path class="cls-1" d="M187.17,587.84c-33.58,37.12,5.42,49.56,28.32,71.53,13,12.47,23.13,29.17,27.73,46.63,2.6,9.88,1.32,35.37,14.1,36.09,16.8.94,10.95-23.43,9.05-33.43-5.27-27.75-20.99-51.93-41.76-70.53-6.1-5.46-22.46-15.3-25.91-21.15-4.53-7.68,5.72-15.01,10.69-19.82,29.52-28.58,62.29-54.01,91.1-83.41,10.21-1.25,20.26,1.67,31.06.7,33.23-2.98,64.71-32.36,67.61-65.93,5.68-65.83-4.31-139.81-.12-206.5,3.2-38.11-2.45-78,0-116.86,4.71-74.96,97.07-79.59,109.39-9.09v638.99c-5.2,65.29-57.13,117.51-122.23,123.6-83.28-4.83-174,6.53-256.41,0-66.6-5.28-118.88-62.12-122.26-128.13l.85-173.81c46.55-36.71,91.23-76.02,138.14-112.25,25.36-19.58,73.47-58.76,104.8-62.12,42.2-4.52,62.12,35.95,48.39,72.66-12.89,34.46-85.18,82.64-112.5,112.85Z"/>
  <path class="cls-1" d="M54.25,8.01c31.76-4.3,59.59,19.23,62.4,50.63,3.06,128.8-3.43,258.1.11,386.85.12,4.31,1.33,7.86,1.68,12.03l-105.55,85.82-4.55-3.1-.74-481.77c1.99-24.73,21.79-47.1,46.65-50.47Z"/>
  <path class="cls-1" d="M84.97,896.11c2.27-8.01,19.71,1.8,25.49,1.83,86.05,2.78,179.1,7.98,265.19,3.55,9.36-.48,20.55-1.94,29.83-3.55,4.44-.77,25.49-9.13,25.49-1.83v69.81c0,.26-2.34,2.68-3.06,3.01H88.02c-.72-.34-3.06-2.75-3.06-3.01v-69.81Z"/>
  <path class="cls-1" d="M270.45,380.58c-1.69-2.38-1.69-5.16-1.92-7.94-3.75-43.93-1.24-110.59,60-105.51,76.54,6.35,41.42,127.23,49.31,176.75-2.89,22.52-19.65,42.61-42.1,47.43-26.45,5.68-14.54-6.85-11.41-22.04,8.75-42.52-12.49-77.5-53.87-88.7Z"/>
  <path class="cls-1" d="M139.78,436.87c-1.24-2.55-1.57-5.27-1.77-8.08-2.66-36.78-2.87-98.55.01-135.18,2.97-37.78,38.53-62.55,74.81-48.9,51.9,19.52,30.09,91.02,34.26,133.69-1.39,4.11-12.28,4.85-16.38,6.38-19.71,7.35-34.84,16.68-52.14,28.29-8.36,5.61-22.86,19.13-30.5,22.6-2.76,1.25-5.23,2.2-8.28,1.21Z"/>
</svg>