<?xml version="1.0" encoding="iso-8859-1"?>
<!-- Generator: Adobe Illustrator 29.2.1, SVG Export Plug-In . SVG Version: 9.03 Build 55982)  -->
<svg version="1.1" id="Layer_1" xmlns="http://www.w3.org/2000/svg" xmlns:xlink="http://www.w3.org/1999/xlink" x="0px" y="0px"
	 viewBox="0 0 742.667 1080" style="enable-background:new 0 0 742.667 1080;" xml:space="preserve">
<g>
	<path style="fill:#E4E4E4;" d="M298.727,617.571c-33.582,37.124,5.416,49.562,28.318,71.528
		c13.004,12.472,23.134,29.173,27.725,46.633c2.599,9.885,1.321,35.37,14.096,36.085c16.8,0.94,10.948-23.426,9.05-33.433
		c-5.265-27.755-20.99-51.933-41.763-70.533c-6.102-5.463-22.458-15.297-25.908-21.148c-4.527-7.677,5.716-15.009,10.69-19.825
		c29.516-28.575,62.294-54.009,91.095-83.407c10.211-1.247,20.255,1.669,31.06,0.7c33.23-2.981,64.71-32.358,67.609-65.933
		c5.684-65.831-4.313-139.807-0.12-206.497c3.196-38.111-2.452-78.001-0.008-116.859c4.715-74.964,97.068-79.588,109.388-9.087
		l0.007,638.986c-5.204,65.293-57.14,117.509-122.24,123.595c-83.278-4.831-174.005,6.532-256.415-0.005
		c-66.6-5.283-118.884-62.124-122.257-128.131l0.851-173.809c46.547-36.709,91.228-76.021,138.138-112.25
		c25.358-19.584,73.468-58.759,104.801-62.119c42.196-4.525,62.119,35.953,48.385,72.66
		C398.337,539.186,326.049,587.368,298.727,617.571z"/>
	<path style="fill:#E4E4E4;" d="M165.805,37.743c31.757-4.303,59.595,19.229,62.4,50.628c3.064,128.802-3.425,258.097,0.112,386.852
		c0.118,4.31,1.328,7.857,1.677,12.03l-105.548,85.825l-4.551-3.098l-0.741-481.769C121.147,63.482,140.945,41.112,165.805,37.743z"
		/>
	<path style="fill:#E4E4E4;" d="M196.521,925.849c2.271-8.005,19.706,1.803,25.486,1.829c86.054,2.778,179.099,7.977,265.188,3.554
		c9.364-0.481,20.554-1.94,29.831-3.554c4.439-0.772,25.486-9.134,25.486-1.829v69.805c0,0.263-2.34,2.676-3.058,3.012H199.579
		c-0.717-0.335-3.058-2.749-3.058-3.012V925.849z"/>
	<path style="fill:#E4E4E4;" d="M382.002,410.312c-1.686-2.378-1.688-5.164-1.925-7.936c-3.754-43.932-1.24-110.591,59.995-105.51
		c76.54,6.351,41.424,127.225,49.313,176.753c-2.887,22.52-19.647,42.609-42.103,47.43c-26.451,5.679-14.54-6.846-11.415-22.037
		C444.614,456.496,423.379,421.507,382.002,410.312z"/>
	<path style="fill:#E4E4E4;" d="M251.339,466.608c-1.243-2.549-1.571-5.269-1.774-8.084c-2.656-36.776-2.868-98.549,0.015-135.179
		c2.973-37.783,38.531-62.546,74.807-48.901c51.904,19.524,30.094,91.023,34.261,133.689c-1.393,4.114-12.278,4.848-16.383,6.379
		c-19.706,7.352-34.836,16.681-52.138,28.29c-8.36,5.609-22.86,19.132-30.503,22.598
		C256.867,466.651,254.396,467.605,251.339,466.608z"/>
</g>
</svg>
